<svg xmlns="http://www.w3.org/2000/svg" width="2200" height="1180" viewBox="0 0 2200 1180">
<defs>
  <marker id="arrow" viewBox="0 0 10 10" refX="9" refY="5" markerWidth="8" markerHeight="8" orient="auto-start-reverse"><path d="M 0 0 L 10 5 L 0 10 z" fill="#232F3E"/></marker>
  <filter id="shadow" x="-15%" y="-15%" width="130%" height="140%"><feDropShadow dx="0" dy="2" stdDeviation="2" flood-color="#000" flood-opacity="0.12"/></filter>
  <style>
    .title{font-family:Arial,'Noto Sans TC',sans-serif;font-size:30px;font-weight:700;fill:#232F3E}
    .subtitle{font-family:Arial,'Noto Sans TC',sans-serif;font-size:15px;fill:#5F6B7A}
    .lane-title{font-family:Arial,'Noto Sans TC',sans-serif;font-size:17px;font-weight:700;fill:#232F3E}
    .node-title{font-family:Arial,'Noto Sans TC',sans-serif;font-size:15px;font-weight:700;fill:#232F3E}
    .node-sub{font-family:Arial,'Noto Sans TC',sans-serif;font-size:13px;fill:#4B5563}
    .edge-label{font-family:Arial,'Noto Sans TC',sans-serif;font-size:12px;fill:#232F3E;text-anchor:middle}
  </style>
</defs>
<rect x="0" y="0" width="2200" height="1180" fill="#FFFFFF"/>

<text x="60" y="55" class="title" text-anchor="start">README CI/CD Architecture</text>
<text x="60" y="82" class="subtitle" text-anchor="start">GitHub → AWS CodePipeline → AWS CodeBuild → Amazon ECR → Amazon ECS Fargate, provisioned by Terraform</text>
<rect x="45" y="120" width="2110" height="350" rx="18" fill="#F8FBFF" stroke="#4A90E2" stroke-width="2"/>
<text x="65" y="148" class="lane-title" text-anchor="start">CI/CD Orchestration</text>
<rect x="45" y="505" width="2110" height="215" rx="18" fill="#FFFDF7" stroke="#FF9900" stroke-width="2"/>
<text x="65" y="533" class="lane-title" text-anchor="start">Runtime &amp; Observability</text>
<rect x="45" y="805" width="2110" height="245" rx="18" fill="#FBF8FF" stroke="#7B42BC" stroke-width="2"/>
<text x="65" y="833" class="lane-title" text-anchor="start">Infrastructure as Code Provisioning</text>
<path d="M200,240 L280,240" fill="none" stroke="#232F3E" stroke-width="2.7" stroke-linecap="round" stroke-linejoin="round" marker-end="url(#arrow)"/>
<rect x="194.0" y="247" width="92" height="21" rx="5" fill="#ffffff" opacity="0.96"/>
<text x="240" y="262" class="edge-label">git push</text>
<path d="M440,240 L570,240" fill="none" stroke="#232F3E" stroke-width="2.7" stroke-linecap="round" stroke-linejoin="round" marker-end="url(#arrow)"/>
<rect x="462.0" y="247" width="86" height="21" rx="5" fill="#ffffff" opacity="0.96"/>
<text x="505" y="262" class="edge-label">trigger</text>
<path d="M770,230 L890,230" fill="none" stroke="#232F3E" stroke-width="2.7" stroke-linecap="round" stroke-linejoin="round" marker-end="url(#arrow)"/>
<rect x="787.0" y="237" width="86" height="21" rx="5" fill="#ffffff" opacity="0.96"/>
<text x="830" y="252" class="edge-label">source</text>
<path d="M1090,230 L1210,230" fill="none" stroke="#232F3E" stroke-width="2.7" stroke-linecap="round" stroke-linejoin="round" marker-end="url(#arrow)"/>
<rect x="1104.0" y="237" width="92" height="21" rx="5" fill="#ffffff" opacity="0.96"/>
<text x="1150" y="252" class="edge-label">artifact</text>
<path d="M1410,230 L1530,230" fill="none" stroke="#FF9900" stroke-width="2.7" stroke-linecap="round" stroke-linejoin="round" marker-end="url(#arrow)"/>
<rect x="1413.5" y="237" width="113" height="21" rx="5" fill="#ffffff" opacity="0.96"/>
<text x="1470" y="252" class="edge-label">docker push</text>
<path d="M1310,295 L1310,345" fill="none" stroke="#FF9900" stroke-width="2.7" stroke-linecap="round" stroke-linejoin="round" marker-end="url(#arrow)"/>
<rect x="1319.0" y="311" width="92" height="21" rx="5" fill="#ffffff" opacity="0.96"/>
<text x="1365" y="326" class="edge-label">generate</text>
<path d="M1410,390 L1530,390" fill="none" stroke="#FF9900" stroke-width="2.7" stroke-linecap="round" stroke-linejoin="round" marker-end="url(#arrow)"/>
<rect x="1403.0" y="397" width="134" height="21" rx="5" fill="#ffffff" opacity="0.96"/>
<text x="1470" y="412" class="edge-label">store artifact</text>
<path d="M1730,390 L1850,390" fill="none" stroke="#FF9900" stroke-width="2.7" stroke-linecap="round" stroke-linejoin="round" marker-end="url(#arrow)"/>
<rect x="1730.0" y="397" width="120" height="21" rx="5" fill="#ffffff" opacity="0.96"/>
<text x="1790" y="412" class="edge-label">deploy input</text>
<path d="M1950,435 L1950,485 L722,485 L722,545" fill="none" stroke="#FF9900" stroke-width="2.7" stroke-linecap="round" stroke-linejoin="round" marker-end="url(#arrow)"/>
<rect x="1266.0" y="492" width="148" height="21" rx="5" fill="#ffffff" opacity="0.96"/>
<text x="1340" y="507" class="edge-label">update image URI</text>
<path d="M825,610 L1000,610" fill="none" stroke="#FF9900" stroke-width="2.7" stroke-linecap="round" stroke-linejoin="round" marker-end="url(#arrow)"/>
<rect x="852.0" y="617" width="120" height="21" rx="5" fill="#ffffff" opacity="0.96"/>
<text x="912" y="632" class="edge-label">new task set</text>
<path d="M1730,230 L2130,230 L2130,500 L1110,500 L1110,545" fill="none" stroke="#FF9900" stroke-width="2.7" stroke-linecap="round" stroke-linejoin="round" marker-end="url(#arrow)"/>
<rect x="1567.0" y="507" width="106" height="21" rx="5" fill="#ffffff" opacity="0.96"/>
<text x="1620" y="522" class="edge-label">pull image</text>
<path d="M1370,610 L1220,610" fill="none" stroke="#232F3E" stroke-width="2.7" stroke-linecap="round" stroke-linejoin="round" marker-end="url(#arrow)"/>
<rect x="1200.0" y="617" width="190" height="21" rx="5" fill="#ffffff" opacity="0.96"/>
<text x="1295" y="632" class="edge-label">traffic / health check</text>
<path d="M1110,675 L1110,755 L1912,755 L1912,675" fill="none" stroke="#FF9900" stroke-width="2.7" stroke-linecap="round" stroke-linejoin="round" marker-end="url(#arrow)"/>
<rect x="1464.0" y="762" width="92" height="21" rx="5" fill="#ffffff" opacity="0.96"/>
<text x="1510" y="777" class="edge-label">app logs</text>
<path d="M280,935 L360,935 L360,840 L1680,840 L1680,875" fill="none" stroke="#7B42BC" stroke-width="2.7" stroke-linecap="round" stroke-linejoin="round" marker-end="url(#arrow)" stroke-dasharray="8 6"/>
<rect x="967.0" y="847" width="106" height="21" rx="5" fill="#ffffff" opacity="0.96"/>
<text x="1020" y="862" class="edge-label">provisions</text>
<path d="M360,840 L572,840 L572,875" fill="none" stroke="#7B42BC" stroke-width="2.7" stroke-linecap="round" stroke-linejoin="round" marker-end="url(#arrow)" stroke-dasharray="8 6"/>
<rect x="515.5" y="847" width="113" height="21" rx="5" fill="#ffffff" opacity="0.96"/>
<text x="572" y="862" class="edge-label">creates VPC</text>
<path d="M360,840 L892,840 L892,875" fill="none" stroke="#7B42BC" stroke-width="2.7" stroke-linecap="round" stroke-linejoin="round" marker-end="url(#arrow)" stroke-dasharray="8 6"/>
<rect x="835.5" y="847" width="113" height="21" rx="5" fill="#ffffff" opacity="0.96"/>
<text x="892" y="862" class="edge-label">creates IAM</text>
<path d="M360,840 L1260,840 L1260,875" fill="none" stroke="#7B42BC" stroke-width="2.7" stroke-linecap="round" stroke-linejoin="round" marker-end="url(#arrow)" stroke-dasharray="8 6"/>
<rect x="1196.5" y="847" width="127" height="21" rx="5" fill="#ffffff" opacity="0.96"/>
<text x="1260" y="862" class="edge-label">runtime stack</text>
<path d="M360,840 L1650,840 L1650,875" fill="none" stroke="#7B42BC" stroke-width="2.7" stroke-linecap="round" stroke-linejoin="round" marker-end="url(#arrow)" stroke-dasharray="8 6"/>
<rect x="1593.5" y="847" width="113" height="21" rx="5" fill="#ffffff" opacity="0.96"/>
<text x="1650" y="862" class="edge-label">CI/CD stack</text>
<rect x="70" y="185" width="130" height="110" rx="16" fill="#FFFFFF" stroke="#64748B" stroke-width="2.3" filter="url(#shadow)"/>
<circle cx="134.0" cy="214" r="12" fill="#1F77B4"/><path d="M134.0,230 L134.0,256 M115.0,241 L153.0,241 M134.0,256 L118.0,280 M134.0,256 L150.0,280" stroke="#1F77B4" stroke-width="5" stroke-linecap="round" fill="none"/>
<text x="135.0" y="271" class="node-title" text-anchor="middle">Developer</text>
<text x="135.0" y="293" class="node-sub" text-anchor="middle">push commit</text>
<rect x="280" y="185" width="160" height="110" rx="16" fill="#FFFFFF" stroke="#64748B" stroke-width="2.3" filter="url(#shadow)"/>
<circle cx="359.0" cy="226" r="26" fill="#24292F"/><text x="359.0" y="234" font-size="18" font-weight="700" fill="#fff" text-anchor="middle">GH</text>
<text x="360.0" y="271" class="node-title" text-anchor="middle">GitHub Repo</text>
<text x="360.0" y="293" class="node-sub" text-anchor="middle">source code</text>
<rect x="570" y="165" width="200" height="130" rx="16" fill="#FFF8EF" stroke="#FF9900" stroke-width="2.3" filter="url(#shadow)"/>
<g transform="translate(642.000,180.000) scale(1.01818)"><path d="M49.535,0 L5.465,0 C2.451,0 0,2.451 0,5.464 L0,18.536 C0,21.549 2.451,24 5.465,24 L7,24 L7,54 C7,54.552 7.447,55 8,55 L46,55 C46.553,55 47,54.552 47,54 L47,24 L49.535,24 C52.549,24 55,21.549 55,18.536 L55,5.464 C55,2.451 52.549,0 49.535,0 Z M9,53 L9,24 L45,24 L45,53 Z M49.535,22 L5.465,22 C3.555,22 2,20.446 2,18.536 L2,18 L14,18 L14,16 L2,16 L2,5.464 C2,3.554 3.555,2 5.465,2 L49.535,2 C51.445,2 53,3.554 53,5.464 L53,16 L25,16 L25,18 L53,18 L53,18.536 C53,20.446 51.445,22 49.535,22 Z M12.509,38.048 C12.507,37.759 12.63,37.484 12.847,37.293 L19.184,31.691 L20.508,33.19 L15.029,38.033 L20.478,42.73 L19.171,44.245 L12.855,38.799 C12.637,38.611 12.511,38.337 12.509,38.048 Z M32.571,42.78 L38.068,37.958 L32.575,33.197 L33.886,31.685 L40.245,37.198 C40.463,37.387 40.589,37.662 40.59,37.951 C40.591,38.24 40.467,38.515 40.249,38.706 L33.89,44.284 Z M23.667,48.166 L21.817,47.407 L29.409,28.885 L31.259,29.644 Z M17,18 L22,18 L22,16 L17,16 Z" fill="#FF9900" fill-rule="evenodd"/></g>
<text x="670.0" y="251" class="node-title" text-anchor="middle">AWS CodePipeline</text>
<text x="670.0" y="273" class="node-sub" text-anchor="middle">Source / Build / Deploy</text>
<rect x="890" y="165" width="200" height="130" rx="16" fill="#FFF8EF" stroke="#FF9900" stroke-width="2.3" filter="url(#shadow)"/>
<g transform="translate(962.000,180.000) scale(1.01818)"><path d="M49.535,0 L5.465,0 C2.451,0 0,2.451 0,5.464 L0,18.536 C0,21.549 2.451,24 5.465,24 L7,24 L7,54 C7,54.552 7.447,55 8,55 L46,55 C46.553,55 47,54.552 47,54 L47,24 L49.535,24 C52.549,24 55,21.549 55,18.536 L55,5.464 C55,2.451 52.549,0 49.535,0 Z M9,53 L9,24 L45,24 L45,53 Z M49.535,22 L5.465,22 C3.555,22 2,20.446 2,18.536 L2,18 L14,18 L14,16 L2,16 L2,5.464 C2,3.554 3.555,2 5.465,2 L49.535,2 C51.445,2 53,3.554 53,5.464 L53,16 L25,16 L25,18 L53,18 L53,18.536 C53,20.446 51.445,22 49.535,22 Z M12.509,38.048 C12.507,37.759 12.63,37.484 12.847,37.293 L19.184,31.691 L20.508,33.19 L15.029,38.033 L20.478,42.73 L19.171,44.245 L12.855,38.799 C12.637,38.611 12.511,38.337 12.509,38.048 Z M32.571,42.78 L38.068,37.958 L32.575,33.197 L33.886,31.685 L40.245,37.198 C40.463,37.387 40.589,37.662 40.59,37.951 C40.591,38.24 40.467,38.515 40.249,38.706 L33.89,44.284 Z M23.667,48.166 L21.817,47.407 L29.409,28.885 L31.259,29.644 Z M17,18 L22,18 L22,16 L17,16 Z" fill="#FF9900" fill-rule="evenodd"/></g>
<text x="990.0" y="251" class="node-title" text-anchor="middle">Source Stage</text>
<text x="990.0" y="273" class="node-sub" text-anchor="middle">CodeStar / Connections</text>
<rect x="1210" y="165" width="200" height="130" rx="16" fill="#FFF8EF" stroke="#FF9900" stroke-width="2.3" filter="url(#shadow)"/>
<g transform="translate(1282.000,181.003) scale(0.96417)"><path d="M54.44,10 L48.486,4.549 L42.525,10 Z M46.202,3.938 L34.124,3.956 L40.575,9.083 Z M40.755,21.5 L31.248,25 L49.535,25 Z M26.798,45 L53.596,45 L53.596,27 L26.798,27 Z M38.523,10 L31.937,4.766 L25.396,10 Z M23.309,9.115 L29.749,3.963 L16.912,3.982 Z M21.225,10 L14.653,4.726 L8.08,10 L17.865,10 Z M16.873,12 L8.842,12 L16.873,19.965 Z M16.873,23.083 L7.448,31.665 L16.873,40.889 Z M16.873,44.137 L6.948,53.839 L6.948,54 L16.873,54 Z M6.948,33.963 L6.948,51.053 L15.684,42.513 Z M6.948,29.424 L15.62,21.528 L6.948,12.928 Z M5.955,9.148 L12.385,3.989 L5.955,3.999 Z M3.97,2 L1.985,2 L1.985,12 L3.97,12 L3.97,11 L3.97,3 Z M57.933,11.36 C57.785,11.746 57.417,12 57.007,12 L41.686,12 L41.686,20 L54.964,25.074 L54.963,25.076 C55.326,25.225 55.581,25.582 55.581,26 L55.581,46 C55.581,46.552 55.137,47 54.589,47 L25.805,47 C25.258,47 24.813,46.552 24.813,46 L24.813,26 C24.813,25.572 25.083,25.213 25.459,25.071 L25.456,25.064 L39.701,20 L39.701,12 L18.858,12 L18.858,55 C18.858,55.552 18.414,56 17.865,56 L5.955,56 C5.407,56 4.963,55.552 4.963,55 L4.963,14 L0.993,14 C0.445,14 0,13.552 0,13 L0,1 C0,0.448 0.445,0 0.993,0 L4.963,0 C5.511,0 5.955,0.448 5.955,1 L5.955,1.999 L48.633,2 L57.675,10.26 C57.978,10.538 58.081,10.975 57.933,11.36 Z M37.34,43.308 L43.116,30.083 L41.3,29.277 L35.523,42.502 Z M42.766,38.888 L44.049,40.415 L48.337,36.757 C48.547,36.577 48.673,36.316 48.686,36.039 C48.699,35.761 48.595,35.49 48.401,35.292 L44.822,31.633 L43.409,33.038 L46.235,35.928 Z M29.871,35.984 C29.652,35.783 29.534,35.493 29.55,35.195 C29.565,34.896 29.713,34.621 29.951,34.443 L34.822,30.812 L36.003,32.419 L32.1,35.33 L35.375,38.354 L34.033,39.829 Z" fill="#FF9900" fill-rule="evenodd"/></g>
<text x="1310.0" y="251" class="node-title" text-anchor="middle">AWS CodeBuild</text>
<text x="1310.0" y="273" class="node-sub" text-anchor="middle">Docker build + push</text>
<rect x="1530" y="165" width="200" height="130" rx="16" fill="#FFF8EF" stroke="#FF9900" stroke-width="2.3" filter="url(#shadow)"/>
<g transform="translate(1604.979,180.000) scale(0.98122)"><path d="M23.788,25.65 C23.293,25.938 22.986,26.472 22.986,27.046 L22.986,54.792 L1.999,43.056 L1.999,15.78 L25.557,2.131 L46.485,12.501 Z M48.92,12.474 C48.92,11.9 48.613,11.364 48.06,11.047 L26.346,0.287 C25.851,0.001 25.235,0 24.74,0.288 L0.802,14.156 C0.308,14.444 0,14.979 0,15.552 L0,43.288 C0,43.862 0.308,44.396 0.817,44.692 L22.574,56.858 C22.822,57.001 23.101,57.072 23.378,57.072 C23.655,57.072 23.934,57.001 24.181,56.858 C24.677,56.571 24.984,56.036 24.984,55.462 L24.984,27.274 L48.118,13.87 C48.613,13.584 48.92,13.049 48.92,12.474 Z M48.969,43.12 L29.981,54.734 L29.981,44.334 L39.882,37.945 L39.95,37.497 C39.968,37.379 39.975,37.379 39.975,36.839 L40.006,24.432 L49,19.221 Z M50.197,17.144 C49.7,16.854 49.084,16.855 48.589,17.144 L39.014,22.69 C38.714,22.854 38.008,23.238 38.008,24.03 L37.976,36.79 L28.851,42.678 C28.306,43.003 27.982,43.518 27.982,44.061 L27.982,55.38 C27.982,55.947 28.287,56.463 28.798,56.759 C29.065,56.913 29.362,56.991 29.657,56.991 C29.948,56.991 30.239,56.917 30.502,56.764 L50.168,44.736 C50.662,44.448 50.968,43.914 50.968,43.343 L51,18.539 C51,17.965 50.692,17.431 50.197,17.144 Z" fill="#FF9900" fill-rule="evenodd"/></g>
<text x="1630.0" y="251" class="node-title" text-anchor="middle">Amazon ECR</text>
<text x="1630.0" y="273" class="node-sub" text-anchor="middle">${sha} + latest</text>
<rect x="1210" y="345" width="200" height="90" rx="16" fill="#FFFFFF" stroke="#64748B" stroke-width="2.3" filter="url(#shadow)"/>
<path d="M1293.0,364 h26 l12,12 v38 h-38 z" fill="#F2F3F3" stroke="#5F6B7A" stroke-width="2"/><path d="M1319.0,364 v13 h12" fill="none" stroke="#5F6B7A" stroke-width="2"/><path d="M1300.0,387 h24 M1300.0,397 h24 M1300.0,407 h16" stroke="#5F6B7A" stroke-width="2"/>
<text x="1310.0" y="431" class="node-title" text-anchor="middle">imagedefinitions.json</text>
<text x="1310.0" y="453" class="node-sub" text-anchor="middle">container name: app</text>
<rect x="1530" y="345" width="200" height="90" rx="16" fill="#FFF8EF" stroke="#FF9900" stroke-width="2.3" filter="url(#shadow)"/>
<g transform="translate(1603.058,360.000) scale(1.00000)"><path d="M47.836,30.893 L48.22,28.189 C51.761,30.31 51.807,31.186 51.806,31.21 C51.8,31.215 51.196,31.719 47.836,30.893 Z M45.893,30.353 C39.773,28.501 31.25,24.591 27.801,22.961 C27.801,22.947 27.805,22.934 27.805,22.92 C27.805,21.595 26.727,20.517 25.401,20.517 C24.077,20.517 22.999,21.595 22.999,22.92 C22.999,24.245 24.077,25.323 25.401,25.323 C25.983,25.323 26.511,25.106 26.928,24.761 C30.986,26.682 39.443,30.535 45.608,32.355 L43.17,49.561 C43.163,49.608 43.16,49.655 43.16,49.702 C43.16,51.217 36.453,54 25.494,54 C14.419,54 7.641,51.217 7.641,49.702 C7.641,49.656 7.638,49.611 7.632,49.566 L2.538,12.359 C6.947,15.394 16.43,17 25.5,17 C34.556,17 44.023,15.4 48.441,12.374 Z M2,8.478 C2.072,7.162 9.634,2 25.5,2 C41.364,2 48.927,7.161 49,8.478 L49,8.927 C48.13,11.878 38.33,15 25.5,15 C12.648,15 2.843,11.868 2,8.913 Z M51,8.5 C51,5.035 41.066,0 25.5,0 C9.934,0 0,5.035 0,8.5 L0.094,9.254 L5.642,49.778 C5.775,54.31 17.861,56 25.494,56 C34.966,56 45.029,53.822 45.159,49.781 L47.555,32.884 C48.888,33.203 49.985,33.366 50.866,33.366 C52.049,33.366 52.849,33.077 53.334,32.499 C53.732,32.025 53.884,31.451 53.77,30.84 C53.511,29.456 51.868,27.964 48.522,26.055 L50.898,9.293 Z" fill="#FF9900" fill-rule="evenodd"/></g>
<text x="1630.0" y="431" class="node-title" text-anchor="middle">S3 Artifact Bucket</text>
<text x="1630.0" y="453" class="node-sub" text-anchor="middle">pipeline artifacts</text>
<rect x="1850" y="345" width="200" height="90" rx="16" fill="#FFF8EF" stroke="#FF9900" stroke-width="2.3" filter="url(#shadow)"/>
<g transform="translate(1924.968,360.000) scale(0.98166)"><path d="M49,36.28 L41,31.479 L41,20.046 C41,19.69 40.812,19.361 40.504,19.182 L29,12.472 L29,2.798 L49,14.617 Z M50.509,13.185 L28.509,0.185 C28.199,0.002 27.818,0 27.504,0.177 C27.193,0.355 27,0.687 27,1.046 L27,13.046 C27,13.401 27.189,13.73 27.496,13.91 L39,20.62 L39,32.046 C39,32.397 39.185,32.723 39.486,32.903 L49.486,38.903 C49.644,38.998 49.822,39.046 50,39.046 C50.17,39.046 50.34,39.003 50.493,38.916 C50.807,38.739 51,38.406 51,38.046 L51,14.046 C51,13.692 50.814,13.365 50.509,13.185 Z M25.445,54.909 L2,42.445 L2,14.617 L22,2.798 L22,12.497 L11.463,19.202 C11.175,19.386 11,19.704 11,20.046 L11,37.046 C11,37.419 11.208,37.761 11.538,37.933 L24.991,44.933 C25.28,45.083 25.624,45.084 25.912,44.934 L38.964,38.19 L46.996,43.01 Z M49.515,42.188 L39.515,36.188 C39.217,36.01 38.849,35.998 38.541,36.158 L25.455,42.919 L13,36.439 L13,20.595 L23.537,13.89 C23.825,13.706 24,13.388 24,13.046 L24,1.046 C24,0.687 23.808,0.355 23.496,0.177 C23.184,0 22.802,0.002 22.491,0.185 L0.491,13.185 C0.187,13.365 0,13.692 0,14.046 L0,43.046 C0,43.415 0.204,43.755 0.53,43.929 L24.984,56.929 C25.131,57.007 25.292,57.046 25.453,57.046 C25.62,57.046 25.786,57.004 25.937,56.921 L49.484,43.921 C49.797,43.748 49.993,43.421 50,43.064 C50.006,42.706 49.821,42.372 49.515,42.188 Z" fill="#FF9900" fill-rule="evenodd"/></g>
<text x="1950.0" y="431" class="node-title" text-anchor="middle">Deploy Stage</text>
<text x="1950.0" y="453" class="node-sub" text-anchor="middle">ECS standard deploy</text>
<rect x="620" y="545" width="205" height="130" rx="16" fill="#FFF8EF" stroke="#FF9900" stroke-width="2.3" filter="url(#shadow)"/>
<g transform="translate(697.468,560.000) scale(0.98166)"><path d="M49,36.28 L41,31.479 L41,20.046 C41,19.69 40.812,19.361 40.504,19.182 L29,12.472 L29,2.798 L49,14.617 Z M50.509,13.185 L28.509,0.185 C28.199,0.002 27.818,0 27.504,0.177 C27.193,0.355 27,0.687 27,1.046 L27,13.046 C27,13.401 27.189,13.73 27.496,13.91 L39,20.62 L39,32.046 C39,32.397 39.185,32.723 39.486,32.903 L49.486,38.903 C49.644,38.998 49.822,39.046 50,39.046 C50.17,39.046 50.34,39.003 50.493,38.916 C50.807,38.739 51,38.406 51,38.046 L51,14.046 C51,13.692 50.814,13.365 50.509,13.185 Z M25.445,54.909 L2,42.445 L2,14.617 L22,2.798 L22,12.497 L11.463,19.202 C11.175,19.386 11,19.704 11,20.046 L11,37.046 C11,37.419 11.208,37.761 11.538,37.933 L24.991,44.933 C25.28,45.083 25.624,45.084 25.912,44.934 L38.964,38.19 L46.996,43.01 Z M49.515,42.188 L39.515,36.188 C39.217,36.01 38.849,35.998 38.541,36.158 L25.455,42.919 L13,36.439 L13,20.595 L23.537,13.89 C23.825,13.706 24,13.388 24,13.046 L24,1.046 C24,0.687 23.808,0.355 23.496,0.177 C23.184,0 22.802,0.002 22.491,0.185 L0.491,13.185 C0.187,13.365 0,13.692 0,14.046 L0,43.046 C0,43.415 0.204,43.755 0.53,43.929 L24.984,56.929 C25.131,57.007 25.292,57.046 25.453,57.046 C25.62,57.046 25.786,57.004 25.937,56.921 L49.484,43.921 C49.797,43.748 49.993,43.421 50,43.064 C50.006,42.706 49.821,42.372 49.515,42.188 Z" fill="#FF9900" fill-rule="evenodd"/></g>
<text x="722.5" y="631" class="node-title" text-anchor="middle">ECS Service</text>
<text x="722.5" y="653" class="node-sub" text-anchor="middle">rolling update</text>
<rect x="1000" y="545" width="220" height="130" rx="16" fill="#FFF8EF" stroke="#FF9900" stroke-width="2.3" filter="url(#shadow)"/>
<g transform="translate(1082.561,560.000) scale(1.09757)"><path d="M37,41.545 L37,36.699 L40,35.499 L40,40.345 Z M32,35.499 L35,36.699 L35,41.545 L32,40.345 Z M26,48.545 L26,43.699 L29,42.499 L29,47.345 Z M21,42.499 L24,43.699 L24,48.545 L21,47.345 Z M15,41.545 L15,36.699 L18,35.499 L18,40.345 Z M10,35.499 L13,36.699 L13,41.545 L10,40.345 Z M14,33.099 L16.308,34.022 L14,34.945 L11.692,34.022 Z M25,40.099 L27.308,41.022 L25,41.945 L22.692,41.022 Z M36,33.099 L38.308,34.022 L36,34.945 L33.692,34.022 Z M41.371,33.093 L36.371,31.093 C36.133,30.999 35.867,30.999 35.629,31.093 L30.629,33.093 C30.249,33.246 30,33.613 30,34.022 L30,39.945 L25.371,38.093 C25.133,37.999 24.867,37.999 24.629,38.093 L20,39.945 L20,34.022 C20,33.613 19.751,33.246 19.371,33.093 L14.371,31.093 C14.133,30.999 13.867,30.999 13.629,31.093 L8.629,33.093 C8.249,33.246 8,33.613 8,34.022 L8,41.022 C8,41.431 8.249,41.798 8.629,41.951 L13.629,43.951 C13.748,43.998 13.874,44.022 14,44.022 C14.126,44.022 14.252,43.998 14.371,43.951 L19,42.099 L19,48.022 C19,48.431 19.249,48.798 19.629,48.951 L24.629,50.951 C24.748,50.998 24.874,51.022 25,51.022 C25.126,51.022 25.252,50.998 25.371,50.951 L30.371,48.951 C30.751,48.798 31,48.431 31,48.022 L31,42.099 L35.629,43.951 C35.748,43.998 35.874,44.022 36,44.022 C36.126,44.022 36.252,43.998 36.371,43.951 L41.371,41.951 C41.751,41.798 42,41.431 42,41.022 L42,34.022 C42,33.613 41.751,33.246 41.371,33.093 Z M50,20.96 C50,26.805 37.119,29.96 25,29.96 C12.881,29.96 0,26.805 0,20.96 C0,18.169 3.095,15.712 8.715,14.041 L9.285,15.958 C4.791,17.294 2,19.211 2,20.96 C2,24.271 11.445,27.96 25,27.96 C38.555,27.96 48,24.271 48,20.96 C48,19.211 45.209,17.294 40.715,15.958 L41.285,14.041 C46.905,15.712 50,18.169 50,20.96 Z M25,2.093 L35.214,6.022 L25,9.951 L14.786,6.022 Z M35.58,21.864 C33.694,22.708 30.528,23.691 26,23.823 L26,11.709 L37,7.479 L37,19.67 C37,20.621 36.444,21.482 35.58,21.864 Z M13,19.67 L13,7.479 L24,11.709 L24,23.823 C19.472,23.691 16.306,22.708 14.416,21.862 C13.556,21.482 13,20.621 13,19.67 Z M13.604,23.689 C15.805,24.674 19.569,25.849 25,25.849 C30.431,25.849 34.195,24.674 36.393,23.691 C37.977,22.99 39,21.412 39,19.67 L39,6.022 C39,5.608 38.745,5.237 38.359,5.088 L25.359,0.088 C25.127,0 24.873,0 24.641,0.088 L11.641,5.088 C11.255,5.237 11,5.608 11,6.022 L11,19.67 C11,21.412 12.023,22.99 13.604,23.689 Z" fill="#FF9900" fill-rule="evenodd"/></g>
<text x="1110.0" y="631" class="node-title" text-anchor="middle">ECS Fargate Task</text>
<text x="1110.0" y="653" class="node-sub" text-anchor="middle">pull image + run app:8080</text>
<rect x="1370" y="545" width="230" height="130" rx="16" fill="#FFF8EF" stroke="#FF9900" stroke-width="2.3" filter="url(#shadow)"/>
<g transform="translate(1457.000,560.001) scale(1.27270)"><path d="M22.001,0 C9.869,0 0,9.869 0,22 C0,34.131 9.869,44 22.001,44 C34.131,44 44.001,34.131 44.001,22 C44.001,9.869 34.131,0 22.001,0 Z M22.001,42 C10.972,42 2,33.028 2,22 C2,10.972 10.972,2 22.001,2 C33.029,2 42.001,10.972 42.001,22 C42.001,33.028 33.029,42 22.001,42 Z M35.035,28 L33.501,28 L33.501,24.625 C33.501,24.072 33.053,23.625 32.501,23.625 L30.001,23.625 L30.001,20.25 C30.001,19.697 29.553,19.25 29.001,19.25 L23.001,19.25 L23.001,16.875 L29.001,16.875 C29.553,16.875 30.001,16.428 30.001,15.875 L30.001,8 C30.001,7.447 29.553,7 29.001,7 L15.001,7 C14.448,7 14.001,7.447 14.001,8 L14.001,15.875 C14.001,16.428 14.448,16.875 15.001,16.875 L21.001,16.875 L21.001,19.25 L15.001,19.25 C14.448,19.25 14.001,19.697 14.001,20.25 L14.001,23.625 L11.501,23.625 C10.948,23.625 10.501,24.072 10.501,24.625 L10.501,28 L8.965,28 C8.413,28 7.965,28.447 7.965,29 L7.965,33.375 C7.965,33.928 8.413,34.375 8.965,34.375 L13.251,34.375 C13.803,34.375 14.251,33.928 14.251,33.375 L14.251,29 C14.251,28.447 13.803,28 13.251,28 L12.501,28 L12.501,25.625 L16.626,25.625 L16.626,28 L15.876,28 C15.323,28 14.876,28.447 14.876,29 L14.876,33.375 C14.876,33.928 15.323,34.375 15.876,34.375 L20.251,34.375 C20.803,34.375 21.251,33.928 21.251,33.375 L21.251,29 C21.251,28.447 20.803,28 20.251,28 L18.626,28 L18.626,24.625 C18.626,24.072 18.178,23.625 17.626,23.625 L16.001,23.625 L16.001,21.25 L28.001,21.25 L28.001,23.625 L26.376,23.625 C25.823,23.625 25.376,24.072 25.376,24.625 L25.376,28 L23.751,28 C23.198,28 22.751,28.447 22.751,29 L22.751,33.375 C22.751,33.928 23.198,34.375 23.751,34.375 L28.126,34.375 C28.678,34.375 29.126,33.928 29.126,33.375 L29.126,29 C29.126,28.447 28.678,28 28.126,28 L27.376,28 L27.376,25.625 L31.501,25.625 L31.501,28 L30.69,28 C30.137,28 29.69,28.447 29.69,29 L29.69,33.375 C29.69,33.928 30.137,34.375 30.69,34.375 L35.035,34.375 C35.587,34.375 36.035,33.928 36.035,33.375 L36.035,29 C36.035,28.447 35.587,28 35.035,28 Z M16.001,14.875 L16.001,9 L28.001,9 L28.001,14.875 Z M9.966,32.375 L9.966,30 L12.251,30 L12.251,32.375 Z M16.876,32.375 L16.876,30 L19.251,30 L19.251,32.375 Z M24.751,32.375 L24.751,30 L27.126,30 L27.126,32.375 Z M31.69,32.375 L31.69,30 L34.035,30 L34.035,32.375 Z" fill="#FF9900" fill-rule="evenodd"/></g>
<text x="1485.0" y="631" class="node-title" text-anchor="middle">Application Load Balancer</text>
<text x="1485.0" y="653" class="node-sub" text-anchor="middle">HTTP :80 + health check</text>
<rect x="1810" y="545" width="205" height="130" rx="16" fill="#FFF8EF" stroke="#FF9900" stroke-width="2.3" filter="url(#shadow)"/>
<g transform="translate(1884.500,567.254) scale(1.25735)"><path d="M27.5,9 C24.242,9 21.471,11.092 20.438,14 L22.607,14 C23.52,12.222 25.368,11 27.5,11 C30.532,11 33,13.467 33,16.5 C33,19.532 30.532,22 27.5,22 C25.796,22 24.271,21.221 23.261,20 L20.872,20 C22.132,22.376 24.629,24 27.5,24 C31.636,24 35,20.636 35,16.5 C35,12.364 31.636,9 27.5,9 Z M0,25 L13,25 L13,23 L0,23 Z M0,10 L13,10 L13,8 L0,8 Z M0,18 L27,18 L27,16 L0,16 Z M41.843,27.738 L36.818,23.213 C36.4,23.792 35.932,24.33 35.415,24.821 L40.412,29.329 C40.848,29.722 41.528,29.687 41.923,29.249 C42.315,28.812 42.28,28.134 41.843,27.738 Z M43.409,30.588 C42.803,31.259 41.966,31.6 41.125,31.6 C40.394,31.6 39.659,31.341 39.074,30.815 L33.834,26.089 C32.017,27.293 29.84,28 27.5,28 C22.38,28 18.033,24.634 16.549,20 L18.677,20 C20.074,23.509 23.499,26 27.5,26 C32.738,26 37,21.738 37,16.5 C37,11.262 32.738,7 27.5,7 C23.128,7 19.446,9.973 18.345,14 L16.282,14 C17.428,8.857 22.019,5 27.5,5 C33.841,5 39,10.158 39,16.5 C39,18.277 38.583,19.955 37.859,21.46 L43.183,26.254 C44.437,27.388 44.538,29.331 43.409,30.588 Z M0,33 L19,33 L19,31 L0,31 Z M0,2 L21,2 L21,0 L0,0 Z" fill="#FF9900" fill-rule="evenodd"/></g>
<text x="1912.5" y="631" class="node-title" text-anchor="middle">CloudWatch Logs</text>
<text x="1912.5" y="653" class="node-sub" text-anchor="middle">stdout / stderr</text>
<rect x="90" y="875" width="190" height="120" rx="16" fill="#FBF8FF" stroke="#7B42BC" stroke-width="2.3" filter="url(#shadow)"/>
<rect x="162.0" y="896" width="18" height="18" fill="#7B42BC"/><rect x="184.0" y="908" width="18" height="18" fill="#7B42BC"/><rect x="162.0" y="920" width="18" height="18" fill="#7B42BC"/><rect x="184.0" y="932" width="18" height="18" fill="#7B42BC"/>
<text x="185.0" y="961" class="node-title" text-anchor="middle">Terraform IaC</text>
<text x="185.0" y="983" class="node-sub" text-anchor="middle">provisions AWS resources</text>
<rect x="470" y="875" width="205" height="120" rx="16" fill="#FFF8EF" stroke="#FF9900" stroke-width="2.3" filter="url(#shadow)"/>
<g transform="translate(544.500,890.889) scale(0.99664)"><path d="M49,29.583 L43.5,27.383 L43.5,47.334 C45.106,47.174 46.401,46.646 47.321,45.712 C49.021,43.984 49.001,41.451 49,41.426 Z M41.5,47.347 L41.5,27.383 L36,29.583 L36,41.406 C36.007,41.613 36.234,46.763 41.5,47.347 Z M51,41.406 C51.003,41.519 51.053,44.753 48.765,47.096 C47.269,48.629 45.16,49.406 42.5,49.406 C35.927,49.406 34.065,44.188 34,41.43 L34,28.906 C34,28.497 34.249,28.129 34.629,27.977 L42.129,24.977 C42.367,24.882 42.633,24.882 42.871,24.977 L50.371,27.977 C50.751,28.129 51,28.497 51,28.906 Z M54.001,39.44 L54,26.083 L42.5,21.483 L31,26.083 L31,39.406 C30.998,39.497 30.865,45.634 34.534,49.41 C36.466,51.398 39.146,52.406 42.5,52.406 C45.877,52.406 48.57,51.391 50.504,49.39 C54.168,45.598 54.003,39.501 54.001,39.44 Z M51.942,50.779 C49.617,53.186 46.44,54.406 42.5,54.406 C38.579,54.406 35.413,53.19 33.09,50.792 C28.831,46.399 28.991,39.659 29,39.375 L29,25.406 C29,24.997 29.249,24.629 29.629,24.477 L42.129,19.477 C42.367,19.382 42.633,19.382 42.871,19.477 L55.371,24.477 C55.751,24.629 56,24.997 56,25.406 L56,39.406 C56.009,39.656 56.189,46.384 51.942,50.779 Z M11.055,35.406 L26,35.406 L26,37.406 L11.055,37.406 C4.977,37.406 0.337,33.354 0.024,27.771 C0.002,27.543 0,27.277 0,27.011 C0,20.142 4.803,17.613 7.604,16.723 C7.584,16.402 7.574,16.077 7.574,15.75 C7.574,10.297 11.464,4.592 16.621,2.48 C22.677,0 29.062,1.201 33.695,5.687 C35.256,7.208 36.446,8.832 37.307,10.621 C38.513,9.586 39.969,9.03 41.529,9.03 C44.834,9.03 48.33,11.624 48.931,16.593 C51.114,17.143 53.854,18.311 55.788,20.791 L54.212,22.021 C52.43,19.735 49.741,18.783 47.8,18.385 C47.355,18.295 47.028,17.917 47.002,17.465 C46.741,13.044 43.982,11.03 41.529,11.03 C40.067,11.03 38.771,11.72 37.78,13.025 C37.559,13.317 37.199,13.468 36.835,13.41 C36.474,13.355 36.17,13.108 36.045,12.765 C35.278,10.675 34.054,8.829 32.302,7.122 C28.258,3.208 22.676,2.163 17.379,4.331 C12.93,6.153 9.574,11.062 9.574,15.75 C9.574,16.291 9.605,16.826 9.668,17.339 C9.729,17.84 9.405,18.308 8.915,18.43 C6.333,19.069 2,21.035 2,27.011 C2,27.213 1.998,27.416 2.018,27.619 C2.272,32.147 6.072,35.406 11.055,35.406 Z" fill="#FF9900" fill-rule="evenodd"/></g>
<text x="572.5" y="961" class="node-title" text-anchor="middle">VPC / Public Subnets</text>
<text x="572.5" y="983" class="node-sub" text-anchor="middle">IGW + route table</text>
<rect x="790" y="875" width="205" height="120" rx="16" fill="#FFF8EF" stroke="#FF9900" stroke-width="2.3" filter="url(#shadow)"/>
<g transform="translate(864.500,897.000) scale(1.00000)"><path d="M2,40 L54,40 L54,2 L2,2 Z M56,1 L56,41 C56,41.552 55.553,42 55,42 L1,42 C0.447,42 0,41.552 0,41 L0,1 C0,0.448 0.447,0 1,0 L55,0 C55.553,0 56,0.448 56,1 Z M32,29 L47,29 L47,27 L32,27 Z M45,23 L50,23 L50,21 L45,21 Z M32,23 L40,23 L40,21 L32,21 Z M17,27 C17,26.449 16.552,26 16,26 C15.448,26 15,26.449 15,27 C15,27.551 15.448,28 16,28 C16.552,28 17,27.551 17,27 Z M19,27 C19,28.302 18.161,29.401 17,29.816 L17,32 L15,32 L15,29.815 C13.839,29.401 13,28.302 13,27 C13,25.346 14.346,24 16,24 C17.654,24 19,25.346 19,27 Z M7,34.993 L24.994,35 L24.996,31 L21,31 L21,29 L24.996,29 L24.998,26 L21,26 L21,24 L24.999,24 L25,21.007 L7.006,21 Z M10,19.001 L22,19.006 L22,12 C22.001,9.697 19.197,7.677 16,7.675 L15.996,7.675 C12.804,7.675 10.004,9.696 10.002,12 Z M5,35.992 L5.006,20 C5.006,19.734 5.111,19.48 5.299,19.292 C5.486,19.105 5.741,19 6.006,19 L8,19.001 L8.002,12 C8.004,8.512 11.59,5.675 15.996,5.675 L16,5.675 C20.412,5.677 24.001,8.515 24,12 L24,19.007 L26,19.008 C26.553,19.008 27,19.456 27,20.008 L26.994,36 C26.994,36.266 26.889,36.52 26.701,36.708 C26.514,36.895 26.259,37 25.994,37 L6,36.992 C5.447,36.992 5,36.544 5,35.992 Z M48,17 L50,17 L50,15 L48,15 Z M32,17 L43,17 L43,15 L32,15 Z" fill="#FF9900" fill-rule="evenodd"/></g>
<text x="892.5" y="961" class="node-title" text-anchor="middle">IAM Roles &amp; Policies</text>
<text x="892.5" y="983" class="node-sub" text-anchor="middle">least required access</text>
<rect x="1140" y="875" width="240" height="120" rx="16" fill="#FFF8EF" stroke="#FF9900" stroke-width="2.3" filter="url(#shadow)"/>
<rect x="1232.0" y="890" width="56" height="56" rx="10" fill="#232F3E"/><text x="1260.0" y="923.6" font-size="16" font-family="Arial" font-weight="700" fill="#fff" text-anchor="middle">AWS</text>
<text x="1260.0" y="961" class="node-title" text-anchor="middle">Runtime Resources</text>
<text x="1260.0" y="983" class="node-sub" text-anchor="middle">ECR / ECS / ALB / Logs</text>
<rect x="1530" y="875" width="240" height="120" rx="16" fill="#FFF8EF" stroke="#FF9900" stroke-width="2.3" filter="url(#shadow)"/>
<rect x="1622.0" y="890" width="56" height="56" rx="10" fill="#232F3E"/><text x="1650.0" y="923.6" font-size="16" font-family="Arial" font-weight="700" fill="#fff" text-anchor="middle">AWS</text>
<text x="1650.0" y="961" class="node-title" text-anchor="middle">CI/CD Resources</text>
<text x="1650.0" y="983" class="node-sub" text-anchor="middle">Pipeline / Build / S3</text>
<rect x="60" y="1085" width="2080" height="54" rx="12" fill="#FFFFFF" stroke="#CBD5E1"/>
<text x="80" y="1117" class="subtitle" text-anchor="start">Draw.io native AWS stencil paths are used for AWS services. Routes are orthogonal, avoid objects, and labels sit below arrow segments.</text>
</svg>